<svg version="1.1" id="Layer_1" xmlns="http://www.w3.org/2000/svg" xmlns:xlink="http://www.w3.org/1999/xlink" x="0px" y="0px"
	 width="100%" viewBox="0 0 1536 1536" enable-background="new 0 0 1536 1536" xml:space="preserve">
<path fill="#19232F" opacity="1.000000" stroke="none" 
	d="
M711.000000,1537.000000 
	C474.000031,1537.000000 237.500092,1537.000000 1.000095,1537.000000 
	C1.000063,1025.000122 1.000063,513.000244 1.000032,1.000301 
	C512.999756,1.000201 1024.999512,1.000201 1536.999512,1.000100 
	C1536.999634,512.999695 1536.999634,1024.999390 1536.999756,1536.999512 
	C1261.833374,1537.000000 986.666687,1537.000000 711.000000,1537.000000 
M820.190063,601.689941 
	C821.735962,602.526062 823.281799,603.362122 825.229980,604.739990 
	C834.139099,608.777954 842.943787,613.068909 851.980164,616.798584 
	C868.260620,623.518127 884.927856,629.354797 900.950989,636.623840 
	C911.075867,641.217163 917.240906,641.901306 925.973572,634.930542 
	C942.875305,621.438843 959.601746,607.727295 976.367859,594.066284 
	C982.548523,589.030273 988.550720,583.772583 994.791321,578.813599 
	C1000.106628,574.589905 1008.973938,575.225769 1011.245728,566.800476 
	C1023.397278,556.183960 1035.534302,545.550659 1047.722412,534.976318 
	C1048.964233,533.898865 1050.415161,532.734131 1051.943359,532.394775 
	C1054.052612,531.926331 1056.327881,532.204163 1058.531982,532.162354 
	C1058.201904,534.005554 1058.051758,535.907104 1057.479736,537.671936 
	C1057.084106,538.893005 1056.090332,539.915466 1055.391113,541.043579 
	C1046.446533,555.474365 1033.986206,567.337402 1026.529785,583.020325 
	C1020.938538,594.780212 1012.777893,605.344849 1005.496033,616.264893 
	C1000.982483,623.033386 995.637817,629.256714 991.258301,636.103455 
	C982.846680,649.253479 974.929749,662.719116 966.625549,675.939453 
	C965.065674,678.422791 963.032898,681.043030 960.561707,682.431335 
	C955.064453,685.519897 953.211731,690.664612 951.089844,695.963562 
	C949.372742,700.251648 947.533447,704.658020 944.851685,708.362854 
	C934.618042,722.500732 924.439209,736.714355 913.460022,750.267883 
	C898.080444,769.253418 882.315979,787.951294 866.099304,806.224854 
	C857.430969,815.992676 847.849792,825.050110 837.988403,833.632751 
	C827.110596,843.099854 815.715515,852.040344 803.995911,860.443359 
	C798.287903,864.536133 791.620911,867.923950 784.878723,869.817871 
	C767.905396,874.586121 753.691833,868.625793 743.420898,855.015686 
	C736.261292,845.528442 730.372620,834.962524 724.841492,824.394226 
	C716.775879,808.983337 709.565369,793.125854 701.945984,777.480347 
	C694.962158,763.139893 687.940002,748.817993 680.896667,734.506714 
	C674.804993,722.129089 668.659546,709.778015 662.538635,697.414856 
	C657.302551,686.838989 651.305969,676.560425 647.023804,665.611450 
	C641.614624,651.780884 633.348511,639.562256 626.872070,626.364502 
	C622.768127,618.001465 618.450928,609.742554 614.384094,601.361816 
	C606.411255,584.932129 598.533508,568.456238 590.642090,551.987061 
	C586.411377,543.157776 582.232361,534.303650 578.034180,525.458740 
	C576.919250,523.109924 575.946777,520.682922 574.682373,518.418274 
	C572.829102,515.098694 570.738831,511.912415 568.807800,508.635040 
	C564.423889,501.194550 560.911499,493.057281 555.543579,486.416870 
	C543.268250,471.231628 526.788757,464.655121 507.202484,464.958832 
	C485.378723,465.297272 463.515076,465.651550 441.725159,464.703217 
	C426.390045,464.035828 410.642334,479.506622 418.182098,495.380219 
	C425.932953,511.698151 433.668243,528.024536 441.584930,544.262207 
	C445.955200,553.225952 450.728668,561.992249 455.239044,570.888794 
	C460.194214,580.662842 465.032837,590.495789 469.965088,600.281494 
	C474.676941,609.629944 479.611389,618.870300 484.139343,628.306213 
	C488.659943,637.726807 492.440155,647.513306 497.178528,656.816711 
	C506.745300,675.600220 516.773010,694.148560 526.546692,712.827271 
	C531.165833,721.655212 535.669373,730.544312 540.166138,739.435547 
	C543.545776,746.117920 546.745178,752.892273 550.177734,759.546936 
	C556.037170,770.906677 562.002991,782.211853 567.979187,793.510742 
	C568.340698,794.194214 569.186157,794.621704 569.922729,795.911499 
	C570.333984,797.342957 570.542664,798.873474 571.187134,800.190857 
	C580.160217,818.532288 589.162476,836.859619 598.219543,855.159729 
	C607.484802,873.880615 616.685486,892.635681 626.206543,911.226196 
	C628.891479,916.468811 632.602173,921.186035 635.898010,926.923279 
	C636.756409,929.418823 637.340637,932.052368 638.516174,934.388306 
	C648.741638,954.707397 659.156128,974.931641 669.346191,995.268311 
	C677.160400,1010.863464 684.929626,1026.487305 692.349670,1042.271851 
	C698.606262,1055.581665 708.535645,1065.570312 720.779053,1072.892822 
	C748.908997,1089.716431 781.096924,1087.300415 806.634155,1067.312500 
	C810.407349,1064.359253 812.997803,1059.895020 816.750732,1055.860962 
	C818.342285,1054.218506 820.297546,1052.797363 821.457031,1050.892090 
	C824.909363,1045.218384 828.123596,1039.394897 831.297485,1033.557495 
	C842.411499,1013.116638 853.495483,992.659363 864.507690,972.163635 
	C865.590088,970.149048 866.101501,967.827637 866.949097,964.991760 
	C867.675354,963.633972 868.401550,962.276184 869.707703,960.634338 
	C871.320190,958.551025 873.236877,956.635559 874.494995,954.356628 
	C881.881592,940.976196 889.126221,927.517273 896.396667,914.072876 
	C908.868225,891.010498 921.230164,867.888184 933.816223,844.888367 
	C943.547119,827.106018 953.609192,809.505005 963.362183,791.734436 
	C964.667053,789.356873 965.019958,786.456848 965.799072,783.876099 
	C965.799072,783.876099 965.721924,783.860474 966.383911,783.656433 
	C968.949585,780.469543 971.792786,777.462830 974.009949,774.049561 
	C976.711121,769.890991 978.776489,765.325562 981.310913,761.051147 
	C986.882263,751.655029 992.383362,742.207275 998.304688,733.033325 
	C1001.041077,728.793640 1004.179199,724.512695 1008.043762,721.366516 
	C1015.286926,715.469788 1020.138428,716.069397 1026.855835,722.356018 
	C1028.431396,723.830383 1029.778809,725.593201 1031.498779,726.860046 
	C1035.864258,730.075623 1040.381470,733.085266 1044.988037,736.859863 
	C1048.875366,741.325317 1052.410278,746.171143 1056.729126,750.170654 
	C1063.913086,756.823486 1071.412598,763.175049 1079.154053,769.169556 
	C1083.002197,772.149292 1087.436646,774.868530 1092.042603,776.259888 
	C1099.501709,778.513062 1106.483276,774.067871 1108.551758,766.611389 
	C1109.343384,763.757690 1109.848633,760.742371 1109.921143,757.786804 
	C1110.132690,749.164246 1109.763184,740.520874 1110.163940,731.910889 
	C1110.875244,716.625854 1112.126953,701.366455 1112.896484,686.083496 
	C1114.026123,663.650330 1115.011353,641.209167 1115.910156,618.765442 
	C1117.015381,591.162842 1117.909180,563.551697 1119.015869,535.949158 
	C1119.468994,524.647827 1120.324219,513.363037 1120.842529,502.063690 
	C1121.315674,491.751068 1121.928589,481.426025 1121.844604,471.111664 
	C1121.751953,459.711029 1112.960449,452.989716 1101.880249,455.688873 
	C1097.067383,456.861298 1092.431152,458.913544 1087.862915,460.905762 
	C1074.438599,466.760071 1061.140137,472.904205 1047.695923,478.711273 
	C1031.845947,485.557495 1015.817444,491.992554 1000.004883,498.921936 
	C971.804504,511.279907 943.730652,523.926331 915.559143,536.350525 
	C900.650085,542.925659 885.639832,549.271057 870.687866,555.749268 
	C855.749084,562.221741 840.782227,568.632751 825.930420,575.299744 
	C822.664368,576.765991 819.409302,578.771362 816.885254,581.271667 
	C811.175659,586.927490 812.380371,596.102173 819.237854,600.435730 
	C819.445923,600.664062 819.672363,600.872437 820.190063,601.689941 
z"/>
<path fill="#063923" opacity="1.000000" stroke="none" 
	d="
M569.806458,795.168335 
	C569.186157,794.621704 568.340698,794.194214 567.979187,793.510742 
	C562.002991,782.211853 556.037170,770.906677 550.177734,759.546936 
	C546.745178,752.892273 543.545776,746.117920 540.166138,739.435547 
	C535.669373,730.544312 531.165833,721.655212 526.546692,712.827271 
	C516.773010,694.148560 506.745300,675.600220 497.178528,656.816711 
	C492.440155,647.513306 488.659943,637.726807 484.139343,628.306213 
	C479.611389,618.870300 474.676941,609.629944 469.965088,600.281494 
	C465.032837,590.495789 460.194214,580.662842 455.239044,570.888794 
	C450.728668,561.992249 445.955200,553.225952 441.584930,544.262207 
	C433.668243,528.024536 425.932953,511.698151 418.182098,495.380219 
	C410.642334,479.506622 426.390045,464.035828 441.725159,464.703217 
	C463.515076,465.651550 485.378723,465.297272 507.202484,464.958832 
	C526.788757,464.655121 543.268250,471.231628 555.543579,486.416870 
	C560.911499,493.057281 564.423889,501.194550 568.807800,508.635040 
	C570.738831,511.912415 572.829102,515.098694 574.682373,518.418274 
	C575.946777,520.682922 576.919250,523.109924 578.034180,525.458740 
	C582.232361,534.303650 586.411377,543.157776 590.642090,551.987061 
	C598.533508,568.456238 606.411255,584.932129 614.384094,601.361816 
	C618.450928,609.742554 622.768127,618.001465 626.872070,626.364502 
	C633.348511,639.562256 641.614624,651.780884 647.023804,665.611450 
	C651.305969,676.560425 657.302551,686.838989 662.538635,697.414856 
	C668.659546,709.778015 674.804993,722.129089 680.896667,734.506714 
	C687.940002,748.817993 694.962158,763.139893 701.945984,777.480347 
	C709.565369,793.125854 716.775879,808.983337 724.841492,824.394226 
	C730.372620,834.962524 736.261292,845.528442 743.420898,855.015686 
	C753.691833,868.625793 767.905396,874.586121 784.878723,869.817871 
	C791.620911,867.923950 798.287903,864.536133 803.995911,860.443359 
	C815.715515,852.040344 827.110596,843.099854 837.988403,833.632751 
	C847.849792,825.050110 857.430969,815.992676 866.099304,806.224854 
	C882.315979,787.951294 898.080444,769.253418 913.460022,750.267883 
	C924.439209,736.714355 934.618042,722.500732 944.851685,708.362854 
	C947.533447,704.658020 949.372742,700.251648 951.089844,695.963562 
	C953.211731,690.664612 955.064453,685.519897 960.561707,682.431335 
	C963.032898,681.043030 965.065674,678.422791 966.625549,675.939453 
	C974.929749,662.719116 982.846680,649.253479 991.258301,636.103455 
	C995.637817,629.256714 1000.982483,623.033386 1005.496033,616.264893 
	C1012.777893,605.344849 1020.938538,594.780212 1026.529785,583.020325 
	C1033.986206,567.337402 1046.446533,555.474365 1055.391113,541.043579 
	C1056.090332,539.915466 1057.084106,538.893005 1057.479736,537.671936 
	C1058.051758,535.907104 1058.201904,534.005554 1058.531982,532.162354 
	C1056.327881,532.204163 1054.052612,531.926331 1051.943359,532.394775 
	C1050.415161,532.734131 1048.964233,533.898865 1047.722412,534.976318 
	C1035.534302,545.550659 1023.397278,556.183960 1011.245728,566.800537 
	C1008.973938,575.225769 1000.106628,574.589905 994.791321,578.813599 
	C988.550720,583.772583 982.548523,589.030273 976.367859,594.066284 
	C959.601746,607.727295 942.875305,621.438843 925.973572,634.930542 
	C917.240906,641.901306 911.075867,641.217163 900.950989,636.623840 
	C884.927856,629.354797 868.260620,623.518127 851.980164,616.798584 
	C842.943787,613.068909 834.139099,608.777954 825.120483,604.357666 
	C825.010986,603.975403 825.194946,603.753296 825.558594,603.826538 
	C853.809509,614.711426 881.787598,625.298584 909.511047,636.514893 
	C915.394592,638.895264 919.072571,637.871094 923.622986,634.105591 
	C956.473022,606.922180 989.514648,579.970276 1022.477478,552.922913 
	C1041.008911,537.717163 1059.505859,522.469421 1078.262085,507.157043 
	C1079.188477,507.056274 1079.871094,507.039001 1080.313843,507.199768 
	C1056.074341,543.778687 1032.038330,580.155640 1008.092590,616.591980 
	C998.227844,631.602356 988.557190,646.740295 978.537170,662.030884 
	C959.428833,689.747864 940.581482,717.254211 921.468384,744.960571 
	C918.001526,749.210144 914.804382,753.262878 911.598877,757.308899 
	C888.193787,786.851013 863.684814,815.406311 835.325867,840.369324 
	C821.938660,852.153381 807.998901,863.375793 791.133606,869.977478 
	C775.468994,876.109192 760.425110,874.704712 747.710266,863.265625 
	C741.906250,858.043945 736.976746,851.408813 733.086853,844.594849 
	C725.509216,831.320618 718.943420,817.468689 711.935669,803.673096 
	C711.912720,803.490234 711.700867,803.188538 711.650391,802.936035 
	C711.382141,802.421814 711.164307,802.160095 710.892334,801.553955 
	C697.324341,774.051819 683.810547,746.894043 670.214478,719.385010 
	C657.493103,693.430542 644.858765,667.825134 632.193665,642.234924 
	C631.771973,641.382935 631.037964,640.685547 630.406250,639.808655 
	C630.362976,639.701233 630.158203,639.593079 630.210083,639.316162 
	C629.953308,638.617188 629.644531,638.195190 629.292603,637.655396 
	C629.249390,637.537659 629.037109,637.403992 629.095825,636.997925 
	C621.432068,621.045837 613.709595,605.499756 605.975220,589.982971 
	C605.963257,590.012268 606.023193,590.032715 605.987610,589.710205 
	C605.401978,588.469360 604.851929,587.551025 604.282593,586.744446 
	C604.263245,586.856201 604.489014,586.877930 604.412964,586.513794 
	C603.233826,584.076233 602.130615,582.002686 601.016907,579.959412 
	C601.006409,579.989624 601.070374,579.987366 601.027344,579.625854 
	C587.469360,551.993835 574.426941,524.475281 560.281433,497.535980 
	C550.037354,478.026764 533.249390,467.802765 510.791199,467.832123 
	C487.307465,467.862823 463.823730,467.888824 440.339996,467.922485 
	C423.131897,467.947174 414.061493,482.037842 421.361450,497.707886 
	C425.067444,505.663208 429.297913,513.372986 433.235962,521.221497 
	C467.554230,589.618042 501.844910,658.028381 536.183105,726.414917 
	C542.357544,738.711731 548.712036,750.918152 555.018311,763.511841 
	C560.115479,774.177063 565.177673,784.496704 570.131714,794.904480 
	C570.023438,794.992615 569.806458,795.168335 569.806458,795.168335 
z"/>
<path fill="#063923" opacity="1.000000" stroke="none" 
	d="
M818.940308,600.083191 
	C812.380371,596.102173 811.175659,586.927490 816.885254,581.271667 
	C819.409302,578.771362 822.664368,576.765991 825.930420,575.299744 
	C840.782227,568.632751 855.749084,562.221741 870.687866,555.749268 
	C885.639832,549.271057 900.650085,542.925659 915.559143,536.350525 
	C943.730652,523.926331 971.804504,511.279907 1000.004883,498.921936 
	C1015.817444,491.992554 1031.845947,485.557495 1047.695923,478.711273 
	C1061.140137,472.904205 1074.438599,466.760071 1087.862915,460.905762 
	C1092.431152,458.913544 1097.067383,456.861298 1101.880249,455.688873 
	C1112.960449,452.989716 1121.751953,459.711029 1121.844604,471.111664 
	C1121.928589,481.426025 1121.315674,491.751068 1120.842529,502.063690 
	C1120.324219,513.363037 1119.468994,524.647827 1119.015869,535.949158 
	C1117.909180,563.551697 1117.015381,591.162842 1115.910156,618.765442 
	C1115.011353,641.209167 1114.026123,663.650330 1112.896484,686.083496 
	C1112.126953,701.366455 1110.875244,716.625854 1110.163940,731.910889 
	C1109.763184,740.520874 1110.132690,749.164246 1109.921143,757.786804 
	C1109.848633,760.742371 1109.343384,763.757690 1108.551758,766.611389 
	C1106.483276,774.067871 1099.501709,778.513062 1092.042603,776.259888 
	C1087.436646,774.868530 1083.002197,772.149292 1079.154053,769.169556 
	C1071.412598,763.175049 1063.913086,756.823486 1056.729126,750.170654 
	C1052.410278,746.171143 1048.875366,741.325317 1045.011719,736.414978 
	C1045.035400,735.970093 1045.230957,735.766602 1045.531006,735.913330 
	C1056.145874,745.124878 1066.460815,754.189636 1076.945801,763.539490 
	C1080.528442,766.741272 1083.644653,770.134766 1087.413940,772.477539 
	C1095.783447,777.679443 1106.535156,772.121338 1107.026489,762.558411 
	C1107.749878,748.475830 1108.332886,734.385925 1108.942993,720.297668 
	C1109.943970,697.185303 1110.939331,674.072632 1111.898315,650.958496 
	C1112.670044,632.360046 1113.362915,613.758362 1114.131958,595.159851 
	C1114.720703,580.924438 1115.347534,566.690369 1116.005249,552.458008 
	C1116.647705,538.554565 1117.472412,524.658447 1117.991943,510.750732 
	C1118.481812,497.637970 1118.762695,484.515656 1118.978394,471.394958 
	C1119.172974,459.559296 1110.056274,453.574982 1099.252075,458.302917 
	C1063.407349,473.988403 1027.572021,489.695282 991.717163,505.357422 
	C936.792725,529.349548 881.876465,553.360840 826.904846,577.244385 
	C815.804749,582.067139 813.105469,589.427307 819.178955,599.845459 
	C819.098511,599.923828 818.940308,600.083191 818.940308,600.083191 
z"/>
<path fill="#063923" opacity="1.000000" stroke="none" 
	d="
M816.135498,1056.129883 
	C812.997803,1059.895020 810.407349,1064.359253 806.634155,1067.312500 
	C781.096924,1087.300415 748.908997,1089.716431 720.779053,1072.892822 
	C708.535645,1065.570312 698.606262,1055.581665 692.349670,1042.271851 
	C684.929626,1026.487305 677.160400,1010.863464 669.346191,995.268311 
	C659.156128,974.931641 648.741638,954.707397 638.516174,934.388306 
	C637.340637,932.052368 636.756409,929.418823 635.979614,926.438232 
	C636.061279,925.953186 636.280090,925.762207 636.517456,926.015625 
	C645.851807,944.423523 654.911194,962.597046 664.056335,980.727295 
	C672.896667,998.253113 681.825317,1015.734375 690.769409,1033.558960 
	C691.447021,1035.017822 692.070496,1036.153076 692.760437,1037.620850 
	C693.786377,1039.727783 694.745789,1041.501953 695.775513,1043.614868 
	C697.471924,1046.392578 699.098083,1048.831543 700.844360,1051.585083 
	C708.730774,1062.229370 718.482727,1070.246460 730.260132,1075.417236 
	C750.670898,1084.378296 771.119202,1084.679810 791.613281,1074.216431 
	C799.858643,1067.999512 807.760254,1061.854492 815.780334,1055.814453 
	C815.898804,1055.919556 816.135498,1056.129883 816.135498,1056.129883 
z"/>
<path fill="#4DC482" opacity="1.000000" stroke="none" 
	d="
M869.127808,960.918396 
	C868.401550,962.276184 867.675354,963.633972 866.561523,965.404663 
	C862.890564,971.299072 859.607056,976.780518 856.233154,982.190430 
	C856.142761,982.118835 855.963379,981.973816 855.994141,981.589111 
	C856.868103,978.876038 857.466187,976.420227 858.598633,974.242249 
	C862.584167,966.576843 866.859680,959.061829 870.827515,951.387573 
	C876.695312,940.038635 882.393921,928.602234 888.463867,917.035461 
	C889.601440,915.659912 890.576416,914.524048 891.257507,913.233154 
	C900.225647,896.234924 909.059326,879.165100 918.119202,862.216064 
	C925.307922,848.767334 932.760925,835.459900 940.347534,821.875366 
	C941.419189,820.119080 942.239929,818.577087 943.086121,816.818726 
	C943.111572,816.602417 943.139771,816.167725 943.426025,815.983521 
	C952.464783,800.937195 961.137024,786.026672 970.050415,771.261719 
	C971.504272,768.853577 974.023376,767.088501 975.975708,765.369019 
	C972.508240,771.761475 969.115112,777.810974 965.721924,783.860474 
	C965.721924,783.860474 965.799072,783.876099 965.525452,784.031738 
	C964.888123,784.743530 964.485168,785.278015 964.166321,785.858765 
	C932.892883,842.815918 901.620483,899.773621 870.392456,956.755676 
	C869.710327,958.000488 869.537964,959.524597 869.127808,960.918396 
z"/>
<path fill="#063923" opacity="1.000000" stroke="none" 
	d="
M869.417725,960.776367 
	C869.537964,959.524597 869.710327,958.000488 870.392456,956.755676 
	C901.620483,899.773621 932.892883,842.815918 964.166321,785.858765 
	C964.485168,785.278015 964.888123,784.743530 965.532837,783.993103 
	C965.019958,786.456848 964.667053,789.356873 963.362183,791.734436 
	C953.609192,809.505005 943.547119,827.106018 933.816223,844.888367 
	C921.230164,867.888184 908.868225,891.010498 896.396667,914.072876 
	C889.126221,927.517273 881.881592,940.976196 874.494995,954.356628 
	C873.236877,956.635559 871.320190,958.551025 869.417725,960.776367 
z"/>
<path fill="#063923" opacity="1.000000" stroke="none" 
	d="
M966.052979,783.758423 
	C969.115112,777.810974 972.508240,771.761475 975.953247,765.362061 
	C976.005066,765.012207 976.026367,765.053589 976.299622,764.850464 
	C988.464661,745.224792 1000.356445,725.802246 1012.388977,706.390137 
	C1012.529663,706.400635 1012.804260,706.335632 1013.017090,706.582886 
	C1023.896912,716.475647 1034.563965,726.121094 1045.230957,735.766602 
	C1045.230957,735.766602 1045.035400,735.970093 1044.936768,736.073730 
	C1040.381470,733.085266 1035.864258,730.075623 1031.498779,726.860046 
	C1029.778809,725.593201 1028.431396,723.830383 1026.855835,722.356018 
	C1020.138428,716.069397 1015.286926,715.469788 1008.043762,721.366516 
	C1004.179199,724.512695 1001.041077,728.793640 998.304688,733.033325 
	C992.383362,742.207275 986.882263,751.655029 981.310913,761.051147 
	C978.776489,765.325562 976.711121,769.890991 974.009949,774.049561 
	C971.792786,777.462830 968.949585,780.469543 966.052979,783.758423 
z"/>
<path fill="#063923" opacity="1.000000" stroke="none" 
	d="
M635.951904,926.048706 
	C632.602173,921.186035 628.891479,916.468811 626.206543,911.226196 
	C616.685486,892.635681 607.484802,873.880615 598.219543,855.159729 
	C589.162476,836.859619 580.160217,818.532288 571.187134,800.190857 
	C570.542664,798.873474 570.333984,797.342957 569.864624,795.539917 
	C569.806458,795.168335 570.023438,794.992615 570.370850,795.153076 
	C575.008057,803.767578 579.273987,812.233887 583.592896,820.673035 
	C591.009644,835.165100 598.459534,849.640198 605.901001,864.083374 
	C605.906494,864.044312 605.837830,864.083252 605.890015,864.442261 
	C615.802002,884.342590 625.661804,903.883911 635.624756,923.715149 
	C635.911926,924.590759 636.096008,925.176453 636.280090,925.762207 
	C636.280090,925.762207 636.061279,925.953186 635.951904,926.048706 
z"/>
<path fill="#063923" opacity="1.000000" stroke="none" 
	d="
M856.323608,982.261963 
	C859.607056,976.780518 862.890564,971.299072 866.526001,965.733154 
	C866.101501,967.827637 865.590088,970.149048 864.507690,972.163635 
	C853.495483,992.659363 842.411499,1013.116638 831.297485,1033.557495 
	C828.123596,1039.394897 824.909363,1045.218384 821.457031,1050.892090 
	C820.297546,1052.797363 818.342285,1054.218506 816.443115,1055.995361 
	C816.135498,1056.129883 815.898804,1055.919556 815.920349,1055.504883 
	C819.465088,1049.458496 823.289795,1043.990601 826.455750,1038.164917 
	C836.543457,1019.602234 846.386292,1000.906433 856.323608,982.261963 
z"/>
<path fill="#063923" opacity="1.000000" stroke="none" 
	d="
M824.919312,604.086792 
	C823.281799,603.362122 821.735962,602.526062 820.133484,601.296814 
	C820.076904,600.903687 820.234253,600.744141 820.528442,600.881226 
	C822.280029,601.929932 823.737488,602.841614 825.194946,603.753296 
	C825.194946,603.753296 825.010986,603.975403 824.919312,604.086792 
z"/>
<path fill="#063923" opacity="1.000000" stroke="none" 
	d="
M819.997070,600.982178 
	C819.672363,600.872437 819.445923,600.664062 819.089111,600.259460 
	C818.940308,600.083191 819.098511,599.923828 819.391357,599.952881 
	C819.949280,600.177063 820.132629,600.431152 820.234253,600.744141 
	C820.234253,600.744141 820.076904,600.903687 819.997070,600.982178 
z"/>
<path fill="#84F94E" opacity="1.000000" stroke="none" 
	d="
M629.037109,637.403992 
	C629.037109,637.403992 629.249390,637.537659 629.335693,637.907837 
	C629.667358,638.716370 629.912781,639.154724 630.158203,639.593079 
	C630.158203,639.593079 630.362976,639.701233 630.319397,640.158997 
	C630.177917,641.089844 630.080017,641.562927 629.585083,642.025635 
	C627.442261,642.458740 625.486755,642.542969 623.991577,643.415710 
	C620.082520,645.697449 616.588135,648.777710 612.527771,650.688232 
	C608.291077,652.681763 604.812012,654.981506 602.793152,659.361694 
	C602.495850,660.006714 600.343384,660.364990 599.344543,660.014526 
	C596.006409,658.843262 595.066467,660.103271 595.244812,663.246643 
	C595.313477,664.457825 594.983826,665.691650 594.835693,666.915100 
	C594.417114,666.465088 593.998596,666.015076 593.580017,665.565063 
	C590.244995,667.049133 586.882263,668.475159 583.588318,670.045593 
	C582.253601,670.681946 581.117432,671.723389 579.808044,672.426147 
	C570.852295,677.233521 561.156555,680.901367 554.531128,689.252930 
	C553.889526,690.061707 552.544312,690.418152 551.454224,690.748352 
	C542.544617,693.447205 534.419678,697.699280 526.628662,702.764160 
	C524.577087,698.409607 522.869080,694.259766 520.858215,690.262329 
	C513.416626,675.469299 505.848053,660.740234 498.392365,645.954224 
	C496.759338,642.715759 495.394806,639.341797 494.217224,635.883057 
	C498.568451,633.725830 502.606018,631.709656 506.651978,629.710388 
	C507.536560,629.273315 508.612457,629.082825 509.325989,628.463013 
	C514.130981,624.289185 517.554810,618.308533 524.558716,617.010193 
	C525.031677,616.922546 525.550171,616.078857 525.717041,615.492737 
	C527.925781,607.733154 534.889587,606.522461 541.109497,604.612488 
	C544.328125,603.624084 546.918640,603.010620 548.995544,599.628296 
	C550.712585,596.831970 554.636963,595.359314 557.654175,593.409851 
	C558.737122,592.710144 560.710083,592.643433 561.116089,591.756470 
	C564.836853,583.627991 573.660217,583.994873 580.039856,580.433228 
	C582.684937,578.956543 586.762512,580.112061 586.849731,575.179932 
	C586.859070,574.650513 588.913086,573.850342 590.078613,573.722412 
	C591.701172,573.544189 593.380310,573.881836 595.229370,574.276550 
	C597.305786,576.365356 599.188049,578.176392 601.070374,579.987366 
	C601.070374,579.987366 601.006409,579.989624 600.999084,580.345886 
	C602.157532,582.760742 603.323242,584.819336 604.489014,586.877930 
	C604.489014,586.877930 604.263245,586.856201 604.270752,587.095215 
	C604.859863,588.233704 605.441528,589.133179 606.023193,590.032715 
	C606.023193,590.032715 605.963257,590.012268 605.970581,590.377686 
	C606.535950,592.636108 606.881958,594.625061 607.687500,596.406067 
	C612.054260,606.060913 616.332825,615.765259 621.066956,625.240112 
	C623.218811,629.546936 626.350098,633.364502 629.037109,637.403992 
z"/>
<path fill="#41E370" opacity="1.000000" stroke="none" 
	d="
M710.946411,801.898438 
	C711.164307,802.160095 711.382141,802.421814 711.579834,803.087769 
	C711.604370,803.910706 711.648987,804.329468 711.774536,805.146484 
	C716.573914,815.888672 721.235352,826.259094 726.033875,836.565796 
	C728.605652,842.089661 731.413208,847.503662 733.714661,852.992432 
	C728.017517,854.783203 721.971680,855.480164 717.588318,858.550537 
	C709.946106,863.903564 702.704468,869.516113 693.307129,871.497437 
	C692.137390,871.744019 690.744141,873.288696 690.367065,874.512939 
	C689.017761,878.893860 685.955078,879.860168 681.885010,879.780090 
	C680.656006,879.755859 679.255676,880.551270 678.198547,881.330505 
	C676.034973,882.925476 674.020935,884.730103 672.000732,886.511169 
	C669.746155,888.498901 667.647034,890.673828 665.304382,892.547485 
	C663.303040,894.148254 661.231934,895.982178 658.877197,896.756958 
	C653.277710,898.599243 649.007935,903.713623 642.490112,903.313843 
	C641.747803,903.268372 640.794861,904.349365 640.170410,905.100037 
	C637.733826,908.029053 635.390076,911.035400 632.815918,913.724731 
	C625.345642,898.695435 618.145813,883.916565 610.710754,869.257019 
	C609.682617,867.230042 607.490906,865.793274 605.837830,864.083252 
	C605.837830,864.083252 605.906494,864.044312 605.914185,863.685913 
	C605.598694,861.261841 605.275452,859.196228 605.145630,856.836914 
	C610.174561,853.146484 614.962280,849.678894 619.855896,846.367798 
	C629.035828,840.156677 638.276855,834.035950 647.492798,827.878052 
	C658.680786,820.402466 669.783691,812.794800 681.096497,805.513367 
	C686.017212,802.346191 691.217896,799.495300 696.588867,797.195312 
	C699.359619,796.008789 702.781738,796.343323 706.072083,796.293945 
	C707.805237,798.364319 709.375793,800.131348 710.946411,801.898438 
z"/>
<path fill="#4DC482" opacity="1.000000" stroke="none" 
	d="
M820.528442,600.881226 
	C820.132629,600.431152 819.949280,600.177063 819.471802,599.874512 
	C813.105469,589.427307 815.804749,582.067139 826.904846,577.244385 
	C881.876465,553.360840 936.792725,529.349548 991.717163,505.357422 
	C1027.572021,489.695282 1063.407349,473.988403 1099.252075,458.302917 
	C1110.056274,453.574982 1119.172974,459.559296 1118.978394,471.394958 
	C1118.762695,484.515656 1118.481812,497.637970 1117.991943,510.750732 
	C1117.472412,524.658447 1116.647705,538.554565 1116.005249,552.458008 
	C1115.347534,566.690369 1114.720703,580.924438 1114.131958,595.159851 
	C1113.362915,613.758362 1112.670044,632.360046 1111.898315,650.958496 
	C1110.939331,674.072632 1109.943970,697.185303 1108.942993,720.297668 
	C1108.332886,734.385925 1107.749878,748.475830 1107.026489,762.558411 
	C1106.535156,772.121338 1095.783447,777.679443 1087.413940,772.477539 
	C1083.644653,770.134766 1080.528442,766.741272 1077.013672,763.462097 
	C1076.911621,763.099670 1077.048462,762.945618 1077.392334,763.016663 
	C1080.968140,765.371338 1084.073364,767.866028 1087.457031,769.896729 
	C1095.680786,774.832458 1104.437012,770.313171 1105.056885,760.732178 
	C1105.894165,747.794434 1106.667847,734.844116 1107.042236,721.886841 
	C1107.618774,701.932800 1107.833008,681.968262 1108.357422,661.632874 
	C1108.722778,656.528381 1108.931641,651.799194 1109.279297,646.829712 
	C1109.595703,646.068054 1109.773315,645.546753 1109.966309,644.684448 
	C1109.985962,643.888123 1109.990234,643.432678 1110.014404,642.510742 
	C1110.690063,624.031677 1111.345947,606.019226 1112.015137,587.554077 
	C1113.022949,565.078064 1114.017578,543.054810 1115.179077,520.653076 
	C1115.506836,519.633301 1115.788452,518.996094 1115.810791,518.349915 
	C1116.358398,502.478271 1116.970093,486.607819 1117.348755,470.731903 
	C1117.467651,465.753418 1113.171021,459.942078 1108.292603,458.712860 
	C1103.818481,457.585541 1099.896240,459.359283 1096.523071,462.958740 
	C1094.768311,463.359558 1093.367432,463.708679 1091.636353,464.131195 
	C1089.530151,465.117676 1087.754028,466.030792 1085.627563,467.033234 
	C1072.713501,472.672546 1060.130493,478.179169 1047.591431,483.783905 
	C1033.395508,490.129211 1019.238831,496.562531 1004.689087,502.999512 
	C993.671509,507.666321 983.022095,512.273499 972.393250,516.927612 
	C969.536438,518.178650 966.742249,519.572754 963.532959,520.918945 
	C955.276428,524.260803 947.389709,527.546814 939.543274,530.926086 
	C935.956055,532.470947 932.447998,534.199646 928.533325,535.893921 
	C925.539673,536.979797 922.859741,537.893494 920.304688,539.076782 
	C912.774414,542.564026 905.371521,546.335327 897.778870,549.677551 
	C874.043640,560.125671 850.249756,570.440674 826.464539,580.774841 
	C821.803955,582.799683 818.650391,585.786621 818.903381,591.312378 
	C819.159058,596.898499 822.406860,599.894531 827.344421,601.850098 
	C840.627869,607.111389 853.837036,612.560181 867.433350,618.046509 
	C871.149048,619.140259 874.507141,620.122131 878.153931,621.315552 
	C884.619690,624.038025 890.796875,626.549072 897.276917,629.253906 
	C899.459412,630.105347 901.542297,630.440125 903.184692,631.474426 
	C912.290833,637.209412 919.484497,635.844666 927.267944,627.958008 
	C935.258728,619.861389 945.158630,613.676392 954.014221,606.400635 
	C978.413940,586.353516 1002.684631,566.149414 1027.045532,546.054810 
	C1041.662476,533.997620 1056.352905,522.029419 1071.303833,509.837341 
	C1073.737671,508.849182 1075.878052,508.044861 1078.018311,507.240540 
	C1059.505859,522.469421 1041.008911,537.717163 1022.477478,552.922913 
	C989.514648,579.970276 956.473022,606.922180 923.622986,634.105591 
	C919.072571,637.871094 915.394592,638.895264 909.511047,636.514893 
	C881.787598,625.298584 853.809509,614.711426 825.558594,603.826538 
	C823.737488,602.841614 822.280029,601.929932 820.528442,600.881226 
z"/>
<path fill="#41E370" opacity="1.000000" stroke="none" 
	d="
M1096.876953,462.907013 
	C1099.896240,459.359283 1103.818481,457.585541 1108.292603,458.712860 
	C1113.171021,459.942078 1117.467651,465.753418 1117.348755,470.731903 
	C1116.970093,486.607819 1116.358398,502.478271 1115.810791,518.349915 
	C1115.788452,518.996094 1115.506836,519.633301 1114.843628,520.578247 
	C1112.064697,520.497559 1109.678223,520.427551 1107.530396,519.675537 
	C1097.205933,516.060547 1093.721191,517.477844 1087.913940,526.583740 
	C1086.311401,529.096558 1082.991211,530.622925 1080.240112,532.225830 
	C1079.450928,532.685669 1077.894531,531.829224 1076.689941,531.576233 
	C1077.004517,530.242737 1077.022583,528.733154 1077.689941,527.609070 
	C1079.608765,524.376770 1082.124390,521.466125 1083.783936,518.120728 
	C1085.872437,513.910950 1084.779175,512.714355 1079.891602,512.584167 
	C1080.154297,510.476410 1080.354004,508.749054 1080.553711,507.021729 
	C1079.871094,507.039001 1079.188477,507.056274 1078.262085,507.157043 
	C1075.878052,508.044861 1073.737671,508.849182 1071.319580,509.443848 
	C1071.177246,504.840027 1073.564087,502.264832 1077.090820,499.662445 
	C1083.260986,495.109283 1088.369995,489.595215 1090.462280,481.559906 
	C1091.654785,476.979645 1094.154785,472.311310 1097.311279,468.802765 
	C1099.968994,465.848419 1098.936279,464.731201 1096.876953,462.907013 
z"/>
<path fill="#98E872" opacity="1.000000" stroke="none" 
	d="
M601.027344,579.625854 
	C599.188049,578.176392 597.305786,576.365356 595.133057,573.938293 
	C587.208496,557.307922 579.746338,541.208130 571.860779,525.318542 
	C568.402954,518.350952 564.425842,511.576752 560.041016,505.154114 
	C556.638428,500.170258 551.262390,496.472870 551.120361,489.576721 
	C551.099976,488.588226 550.055054,487.519562 549.288696,486.663025 
	C539.119995,475.299072 526.690125,470.279480 511.176422,470.852295 
	C493.922485,471.489288 476.608673,470.347961 459.319397,470.250916 
	C450.687500,470.202484 441.985596,470.190094 433.437134,471.196228 
	C424.874207,472.204071 418.600189,484.023529 421.967682,491.691071 
	C424.698212,497.908264 427.577271,504.072968 430.686218,510.108612 
	C437.908386,524.129639 445.579926,537.924866 452.564301,552.061096 
	C460.068298,567.248962 466.788391,582.823181 474.237366,598.039429 
	C480.505768,610.844055 487.329010,623.377014 493.906616,636.030273 
	C495.394806,639.341797 496.759338,642.715759 498.392365,645.954224 
	C505.848053,660.740234 513.416626,675.469299 520.858215,690.262329 
	C522.869080,694.259766 524.577087,698.409607 526.752441,703.103210 
	C533.484802,714.512268 539.902954,725.299133 546.271057,736.115601 
	C546.927856,737.231140 547.341492,738.503235 547.772156,739.736206 
	C549.451172,744.543640 551.091553,749.364624 552.870178,754.513794 
	C554.030762,757.609985 555.067444,760.372803 555.823975,763.146606 
	C555.357056,763.160461 555.170166,763.163391 554.983337,763.166321 
	C548.712036,750.918152 542.357544,738.711731 536.183105,726.414917 
	C501.844910,658.028381 467.554230,589.618042 433.235962,521.221497 
	C429.297913,513.372986 425.067444,505.663208 421.361450,497.707886 
	C414.061493,482.037842 423.131897,467.947174 440.339996,467.922485 
	C463.823730,467.888824 487.307465,467.862823 510.791199,467.832123 
	C533.249390,467.802765 550.037354,478.026764 560.281433,497.535980 
	C574.426941,524.475281 587.469360,551.993835 601.027344,579.625854 
z"/>
<path fill="#4DC482" opacity="1.000000" stroke="none" 
	d="
M734.114502,852.967163 
	C731.413208,847.503662 728.605652,842.089661 726.033875,836.565796 
	C721.235352,826.259094 716.573914,815.888672 711.839050,804.924561 
	C711.822632,804.304443 711.958557,803.856018 711.958557,803.856018 
	C718.943420,817.468689 725.509216,831.320618 733.086853,844.594849 
	C736.976746,851.408813 741.906250,858.043945 747.710266,863.265625 
	C760.425110,874.704712 775.468994,876.109192 791.133606,869.977478 
	C807.998901,863.375793 821.938660,852.153381 835.325867,840.369324 
	C863.684814,815.406311 888.193787,786.851013 911.598877,757.308899 
	C914.804382,753.262878 918.001526,749.210144 921.583740,745.064575 
	C921.964905,744.968689 922.195374,745.177063 922.109802,745.524170 
	C920.814514,748.218506 919.973938,750.869080 918.335144,752.863770 
	C907.679443,765.833435 896.834961,778.647705 886.081177,791.536987 
	C865.485168,816.222839 844.942078,836.700867 821.326477,855.111572 
	C809.839050,864.067139 797.058472,870.853760 782.552734,874.975220 
	C767.763550,877.910217 755.608459,873.077454 744.867554,863.990906 
	C740.966431,860.690796 737.680847,856.663025 734.114502,852.967163 
z"/>
<path fill="#4DC482" opacity="1.000000" stroke="none" 
	d="
M1080.313965,507.199768 
	C1080.354004,508.749054 1080.154297,510.476410 1079.624146,512.759033 
	C1068.944458,529.061401 1058.530029,544.766113 1048.266113,560.568665 
	C1039.701904,573.754211 1031.430298,587.130493 1022.808655,600.277771 
	C1016.901855,609.285217 1010.476562,617.952148 1004.545532,626.944458 
	C999.804626,634.132324 995.459412,641.581238 990.931885,648.923462 
	C990.925110,648.932678 990.909180,648.949097 990.615112,649.099243 
	C989.202820,650.647644 988.132690,652.087952 986.956482,653.435669 
	C984.394287,656.371216 981.778015,659.259583 979.087524,662.080444 
	C978.991089,661.993713 978.798218,661.820190 978.798218,661.820190 
	C988.557190,646.740295 998.227844,631.602356 1008.092590,616.591980 
	C1032.038330,580.155640 1056.074341,543.778687 1080.313965,507.199768 
z"/>
<path fill="#4DC482" opacity="1.000000" stroke="none" 
	d="
M555.018311,763.511841 
	C555.170166,763.163391 555.357056,763.160461 555.998901,763.411743 
	C561.958435,774.201477 567.390076,784.776123 573.011658,795.248840 
	C574.710388,798.413513 576.935913,801.295410 578.948853,804.662842 
	C580.360168,808.210510 581.581604,811.483887 583.152954,814.579651 
	C590.365845,828.790466 597.676575,842.951599 604.952209,857.130554 
	C605.275452,859.196228 605.598694,861.261841 605.908691,863.724976 
	C598.459534,849.640198 591.009644,835.165100 583.592896,820.673035 
	C579.273987,812.233887 575.008057,803.767578 570.479126,795.064941 
	C565.177673,784.496704 560.115479,774.177063 555.018311,763.511841 
z"/>
<path fill="#4DC482" opacity="1.000000" stroke="none" 
	d="
M921.849548,744.864624 
	C940.581482,717.254211 959.428833,689.747864 978.537170,662.030884 
	C978.798218,661.820190 978.991089,661.993713 979.006104,662.436584 
	C976.303223,668.232300 973.585388,673.585144 970.588074,679.109680 
	C969.680420,680.042908 968.995911,680.765015 968.432434,681.571777 
	C954.798401,701.087708 941.212524,720.637390 927.499939,740.097839 
	C926.116150,742.061768 923.981567,743.496704 922.195374,745.177063 
	C922.195374,745.177063 921.964905,744.968689 921.849548,744.864624 
z"/>
<path fill="#54E769" opacity="1.000000" stroke="none" 
	d="
M629.982117,642.036011 
	C630.080017,641.562927 630.177917,641.089844 630.362671,640.266418 
	C631.037964,640.685547 631.771973,641.382935 632.193665,642.234924 
	C644.858765,667.825134 657.493103,693.430542 670.111267,719.470886 
	C670.090332,719.908142 669.884216,720.080383 669.600708,719.903442 
	C666.535583,714.955505 663.754578,710.184204 660.972046,705.413757 
	C659.338867,702.613770 657.703186,699.815125 655.973999,696.670776 
	C645.476440,679.073730 640.192322,659.379944 629.982117,642.036011 
z"/>
<path fill="#54E769" opacity="1.000000" stroke="none" 
	d="
M710.892334,801.553955 
	C709.375793,800.131348 707.805237,798.364319 705.935181,795.973694 
	C700.321045,784.453674 695.143677,773.487122 689.635803,762.689148 
	C686.721436,756.975586 683.232117,751.555237 679.954224,745.632324 
	C679.027466,743.132507 678.122559,741.013367 677.275208,738.871338 
	C674.799255,732.612549 672.346191,726.344727 669.884155,720.080383 
	C669.884216,720.080383 670.090332,719.908142 670.193481,719.822266 
	C683.810547,746.894043 697.324341,774.051819 710.892334,801.553955 
z"/>
<path fill="#98E872" opacity="1.000000" stroke="none" 
	d="
M629.095825,636.997925 
	C626.350098,633.364502 623.218811,629.546936 621.066956,625.240112 
	C616.332825,615.765259 612.054260,606.060913 607.687500,596.406067 
	C606.881958,594.625061 606.535950,592.636108 605.982483,590.348389 
	C613.709595,605.499756 621.432068,621.045837 629.095825,636.997925 
z"/>
<path fill="#98E872" opacity="1.000000" stroke="none" 
	d="
M604.412964,586.513794 
	C603.323242,584.819336 602.157532,582.760742 601.009583,580.315674 
	C602.130615,582.002686 603.233826,584.076233 604.412964,586.513794 
z"/>
<path fill="#98E872" opacity="1.000000" stroke="none" 
	d="
M605.987610,589.710205 
	C605.441528,589.133179 604.859863,588.233704 604.290039,586.983398 
	C604.851929,587.551025 605.401978,588.469360 605.987610,589.710205 
z"/>
<path fill="#54E769" opacity="1.000000" stroke="none" 
	d="
M711.935669,803.673096 
	C711.958557,803.856018 711.822632,804.304443 711.758118,804.526306 
	C711.648987,804.329468 711.604370,803.910706 711.630249,803.340271 
	C711.700867,803.188538 711.912720,803.490234 711.935669,803.673096 
z"/>
<path fill="#54E769" opacity="1.000000" stroke="none" 
	d="
M630.210083,639.316162 
	C629.912781,639.154724 629.667358,638.716370 629.378906,638.025574 
	C629.644531,638.195190 629.953308,638.617188 630.210083,639.316162 
z"/>
<path fill="#4DC482" opacity="1.000000" stroke="none" 
	d="
M1045.531006,735.913330 
	C1034.563965,726.121094 1023.896912,716.475647 1013.380859,706.531738 
	C1015.670898,707.165710 1017.810059,708.098083 1020.226257,709.223145 
	C1022.086304,710.620422 1023.772827,711.711548 1025.235962,713.047180 
	C1036.853638,723.652466 1048.560059,734.166077 1059.963501,744.998230 
	C1065.944458,750.679626 1071.371338,756.944336 1077.048462,762.945618 
	C1077.048462,762.945618 1076.911621,763.099670 1076.843628,763.177063 
	C1066.460815,754.189636 1056.145874,745.124878 1045.531006,735.913330 
z"/>
<path fill="#4DC482" opacity="1.000000" stroke="none" 
	d="
M636.517456,926.015625 
	C636.096008,925.176453 635.911926,924.590759 635.763062,923.596558 
	C635.798340,923.188110 636.074097,922.950256 636.322021,923.171509 
	C640.127197,929.687073 643.772339,935.933838 647.220276,942.287537 
	C651.864563,950.846130 656.356934,959.487183 660.959351,968.457336 
	C661.626709,970.341614 662.148499,971.912354 662.887939,973.372925 
	C667.891785,983.256226 672.941650,993.116272 678.077393,1003.323120 
	C679.590027,1006.492126 680.927246,1009.362061 682.430725,1012.142212 
	C684.784851,1016.495300 687.251282,1020.787720 689.723938,1025.320435 
	C689.777710,1025.535034 689.892456,1025.961792 689.932495,1026.356201 
	C690.339050,1028.816162 690.705627,1030.881714 690.983154,1033.019531 
	C690.894165,1033.091797 690.715149,1033.235229 690.715149,1033.235229 
	C681.825317,1015.734375 672.896667,998.253113 664.056335,980.727295 
	C654.911194,962.597046 645.851807,944.423523 636.517456,926.015625 
z"/>
<path fill="#4DC482" opacity="1.000000" stroke="none" 
	d="
M856.233215,982.190430 
	C846.386292,1000.906433 836.543457,1019.602234 826.455750,1038.164917 
	C823.289795,1043.990601 819.465088,1049.458496 815.801880,1055.399780 
	C807.760254,1061.854492 799.858643,1067.999512 791.537842,1074.133057 
	C791.118774,1074.121582 790.967590,1073.955200 791.130493,1073.669312 
	C792.311218,1072.543945 793.290222,1071.651489 794.352844,1070.873291 
	C804.565674,1063.393555 814.745544,1055.924438 820.877380,1044.325928 
	C829.575989,1027.872437 838.310608,1011.435974 847.247131,995.111084 
	C849.761475,990.517944 853.036987,986.341431 855.963379,981.973755 
	C855.963379,981.973816 856.142761,982.118835 856.233215,982.190430 
z"/>
<path fill="#4DC482" opacity="1.000000" stroke="none" 
	d="
M791.194214,1074.204834 
	C771.119202,1084.679810 750.670898,1084.378296 730.260132,1075.417236 
	C718.482727,1070.246460 708.730774,1062.229370 700.938110,1051.494507 
	C700.911804,1051.089478 701.099670,1050.908813 701.381714,1051.000732 
	C702.388062,1051.406860 703.112366,1051.721069 704.028931,1052.313354 
	C711.201721,1061.076416 719.810669,1067.558228 729.461487,1072.633789 
	C740.808655,1078.601685 753.095093,1080.830200 765.698792,1079.375854 
	C774.216797,1078.392822 782.551086,1075.817993 790.967590,1073.955200 
	C790.967590,1073.955200 791.118774,1074.121582 791.194214,1074.204834 
z"/>
<path fill="#4DC482" opacity="1.000000" stroke="none" 
	d="
M700.817993,1051.180054 
	C699.098083,1048.831543 697.471924,1046.392578 695.867554,1043.531616 
	C695.889404,1043.109741 696.073547,1042.943237 696.359375,1043.109863 
	C698.130005,1045.820557 699.614807,1048.364624 701.099609,1050.908813 
	C701.099670,1050.908813 700.911804,1051.089478 700.817993,1051.180054 
z"/>
<path fill="#4DC482" opacity="1.000000" stroke="none" 
	d="
M695.797302,1043.192993 
	C694.745789,1041.501953 693.786377,1039.727783 692.857544,1037.532715 
	C692.888184,1037.111938 693.082642,1036.935791 693.371704,1037.113770 
	C694.464966,1039.175537 695.269287,1041.059326 696.073547,1042.943237 
	C696.073547,1042.943237 695.889404,1043.109741 695.797302,1043.192993 
z"/>
<path fill="#4DC482" opacity="1.000000" stroke="none" 
	d="
M692.791016,1037.200073 
	C692.070496,1036.153076 691.447021,1035.017822 690.769409,1033.558960 
	C690.715149,1033.235229 690.894165,1033.091797 691.253723,1033.207764 
	C692.103088,1034.527710 692.592896,1035.731689 693.082642,1036.935791 
	C693.082642,1036.935791 692.888184,1037.111938 692.791016,1037.200073 
z"/>
<path fill="#28DA7F" opacity="1.000000" stroke="none" 
	d="
M677.976624,1002.983826 
	C672.941650,993.116272 667.891785,983.256226 662.887939,973.372925 
	C662.148499,971.912354 661.626709,970.341614 661.031982,968.097717 
	C664.430847,964.624084 667.475342,961.255676 671.247070,959.265259 
	C677.426575,956.004089 683.602539,953.075806 688.260559,947.525513 
	C689.473083,946.080750 692.395020,945.990356 694.575562,945.455994 
	C698.290955,944.545593 704.024109,944.981567 705.399475,942.718628 
	C709.315247,936.275635 714.336243,934.922913 719.599731,935.879089 
	C723.910522,931.116455 727.522095,926.940857 731.359253,922.983887 
	C732.771790,921.527161 734.672729,919.651245 736.426514,919.568481 
	C745.363770,919.146912 750.839905,913.254700 757.105286,908.059998 
	C762.367188,903.697266 766.853455,897.782471 774.433289,896.746948 
	C777.924988,896.269897 780.597534,895.005737 778.974121,890.485107 
	C778.615601,889.486816 779.049866,887.620728 779.818359,886.900085 
	C783.429077,883.514465 783.650391,879.398560 782.980469,874.970520 
	C797.058472,870.853760 809.839050,864.067139 821.326477,855.111572 
	C844.942078,836.700867 865.485168,816.222839 886.081177,791.536987 
	C896.834961,778.647705 907.679443,765.833435 918.335144,752.863770 
	C919.973938,750.869080 920.814514,748.218506 922.109802,745.524170 
	C923.981567,743.496704 926.116150,742.061768 927.499939,740.097839 
	C941.212524,720.637390 954.798401,701.087708 968.432434,681.571777 
	C968.995911,680.765015 969.680420,680.042908 970.967285,679.044678 
	C977.362366,678.442078 978.880615,672.599609 982.919434,670.000305 
	C983.429749,669.671936 983.546936,668.059448 983.248291,667.267395 
	C982.150757,664.357300 983.640625,663.601990 986.083252,662.843811 
	C994.106018,660.353577 994.947083,658.333557 991.566406,650.813477 
	C991.297119,650.214600 991.125977,649.571594 990.909180,648.949097 
	C990.909180,648.949097 990.925110,648.932678 991.302124,648.982788 
	C996.193359,649.463379 1000.706726,649.902405 1005.222839,650.311829 
	C1005.707947,650.355774 1006.280029,650.366821 1006.691406,650.157043 
	C1011.853333,647.524353 1017.192444,645.164307 1022.076721,642.085083 
	C1026.149902,639.517212 1029.615356,636.003906 1033.471436,633.068970 
	C1039.165161,628.735291 1044.421265,623.098267 1050.864014,620.666443 
	C1058.464111,617.797791 1061.860352,611.371399 1067.385498,606.887268 
	C1072.804321,602.489563 1079.786621,600.028931 1086.041870,596.642944 
	C1087.328857,595.946289 1088.487305,594.977844 1089.615845,594.028870 
	C1093.532715,590.735474 1097.436035,587.424866 1101.293945,584.062866 
	C1103.892334,581.798462 1106.232666,582.762085 1108.456543,584.561279 
	C1109.732422,585.593445 1110.826172,586.850769 1112.001831,588.006775 
	C1111.345947,606.019226 1110.690063,624.031677 1109.730469,642.309753 
	C1108.503296,640.593201 1107.579956,638.611023 1106.916870,637.187500 
	C1101.971191,641.105713 1097.316406,644.839050 1092.611816,648.508484 
	C1087.417603,652.559875 1082.219360,656.608459 1076.943970,660.552612 
	C1073.051270,663.463013 1069.260864,666.643677 1064.988892,668.865967 
	C1062.136108,670.350037 1060.913696,671.320618 1062.691406,674.354370 
	C1064.492432,677.427673 1062.765259,678.630493 1059.886719,678.880798 
	C1058.424805,679.007996 1056.942505,678.903015 1055.030273,678.903015 
	C1056.641846,683.184265 1053.795776,684.109497 1050.736816,685.113281 
	C1048.730713,685.771790 1046.768066,686.729858 1044.984375,687.865601 
	C1040.610718,690.650635 1036.141235,693.355774 1032.125732,696.606384 
	C1029.688477,698.579407 1028.024780,701.508057 1025.814209,704.287292 
	C1023.726440,706.054993 1021.837830,707.542725 1019.949219,709.030457 
	C1017.810059,708.098083 1015.670898,707.165710 1013.168030,706.284485 
	C1012.804260,706.335632 1012.529663,706.400635 1012.056030,706.401611 
	C1010.123352,707.657104 1008.247620,708.650146 1007.270630,710.207214 
	C998.853088,723.622986 990.442627,737.048828 982.381470,750.679565 
	C979.733154,755.157471 978.115417,760.244873 976.026367,765.053589 
	C976.026367,765.053589 976.005066,765.012207 976.027588,765.019165 
	C974.023376,767.088501 971.504272,768.853577 970.050415,771.261719 
	C961.137024,786.026672 952.464783,800.937195 943.454590,815.641479 
	C943.302551,813.310669 943.743530,810.276245 940.165527,812.247314 
	C937.826965,813.535583 935.578857,815.765991 934.362000,818.126770 
	C932.613953,821.518066 930.328674,822.033508 927.014404,821.535461 
	C922.172791,820.807983 914.275024,827.148987 911.883850,831.167908 
	C908.588623,836.706299 903.911194,841.435181 899.716248,846.418579 
	C898.120789,848.313904 896.108032,849.855469 894.486633,851.732056 
	C891.802673,854.838562 889.658813,858.561584 886.516907,861.053040 
	C885.150208,862.136780 881.872437,860.611023 879.465210,860.628479 
	C875.799194,860.655029 876.179443,862.666504 877.127808,865.358704 
	C877.660278,866.870239 877.798706,869.572510 876.905212,870.351929 
	C873.079651,873.689270 868.693909,876.373291 864.724243,879.559570 
	C860.702637,882.787476 856.161926,884.674500 853.231262,890.163452 
	C850.390076,895.484802 844.957520,901.542419 836.531128,900.485046 
	C835.418762,900.345520 833.770142,901.965149 832.862305,903.148010 
	C829.036560,908.132874 827.442871,915.199341 819.901733,916.664856 
	C819.366089,916.768982 818.977051,917.562927 818.492676,918.006470 
	C815.768127,920.501404 813.005798,922.955994 810.315308,925.487000 
	C808.334229,927.350708 806.565979,929.456970 804.485901,931.195496 
	C800.673218,934.382385 796.700195,937.377380 791.800049,941.234863 
	C792.532288,945.324097 788.787109,947.888306 783.833740,949.725647 
	C781.514038,950.585938 779.514099,952.357117 777.173889,953.100708 
	C774.501343,953.949829 771.599243,954.052612 768.819885,954.597107 
	C766.661316,955.019958 764.390198,955.303528 762.429138,956.210938 
	C757.993286,958.263428 753.818237,960.893982 749.340454,962.836121 
	C746.597473,964.025940 744.141724,964.742126 744.182495,968.517639 
	C744.195312,969.707581 742.669434,971.077515 741.583984,972.079224 
	C739.794189,973.731079 737.636108,974.996216 735.918091,976.709961 
	C734.119690,978.503723 732.567200,980.058777 731.416504,976.415283 
	C730.450317,973.355957 728.243469,973.620911 726.988281,975.320374 
	C724.245239,979.034241 720.442627,979.504395 716.461487,980.049561 
	C715.351440,980.201599 713.372437,980.734375 713.359131,981.143738 
	C713.199097,986.035828 708.769348,986.910461 705.906067,988.950073 
	C701.520691,992.073914 698.346680,998.367310 691.141296,995.464722 
	C690.516541,995.213074 688.838806,996.266479 688.389893,997.108215 
	C686.128967,1001.346436 682.210205,1002.387939 677.976624,1002.983826 
M1054.767822,623.366882 
	C1054.337769,624.437744 1053.907837,625.508545 1053.477783,626.579407 
	C1054.643921,626.621887 1055.809937,626.664307 1056.976074,626.706787 
	C1056.448120,625.601501 1055.920044,624.496155 1054.767822,623.366882 
z"/>
<path fill="#21D784" opacity="1.000000" stroke="none" 
	d="
M678.077393,1003.323120 
	C682.210205,1002.387939 686.128967,1001.346436 688.389893,997.108215 
	C688.838806,996.266479 690.516541,995.213074 691.141296,995.464722 
	C698.346680,998.367310 701.520691,992.073914 705.906067,988.950073 
	C708.769348,986.910461 713.199097,986.035828 713.359131,981.143738 
	C713.372437,980.734375 715.351440,980.201599 716.461487,980.049561 
	C720.442627,979.504395 724.245239,979.034241 726.988281,975.320374 
	C728.243469,973.620911 730.450317,973.355957 731.416504,976.415283 
	C732.567200,980.058777 734.119690,978.503723 735.918091,976.709961 
	C737.636108,974.996216 739.794189,973.731079 741.583984,972.079224 
	C742.669434,971.077515 744.195312,969.707581 744.182495,968.517639 
	C744.141724,964.742126 746.597473,964.025940 749.340454,962.836121 
	C753.818237,960.893982 757.993286,958.263428 762.429138,956.210938 
	C764.390198,955.303528 766.661316,955.019958 768.819885,954.597107 
	C771.599243,954.052612 774.501343,953.949829 777.173889,953.100708 
	C779.514099,952.357117 781.514038,950.585938 783.833740,949.725647 
	C788.787109,947.888306 792.532288,945.324097 791.800049,941.234863 
	C796.700195,937.377380 800.673218,934.382385 804.485901,931.195496 
	C806.565979,929.456970 808.334229,927.350708 810.315308,925.487000 
	C813.005798,922.955994 815.768127,920.501404 818.492676,918.006470 
	C818.977051,917.562927 819.366089,916.768982 819.901733,916.664856 
	C827.442871,915.199341 829.036560,908.132874 832.862305,903.148010 
	C833.770142,901.965149 835.418762,900.345520 836.531128,900.485046 
	C844.957520,901.542419 850.390076,895.484802 853.231262,890.163452 
	C856.161926,884.674500 860.702637,882.787476 864.724243,879.559570 
	C868.693909,876.373291 873.079651,873.689270 876.905212,870.351929 
	C877.798706,869.572510 877.660278,866.870239 877.127808,865.358704 
	C876.179443,862.666504 875.799194,860.655029 879.465210,860.628479 
	C881.872437,860.611023 885.150208,862.136780 886.516907,861.053040 
	C889.658813,858.561584 891.802673,854.838562 894.486633,851.732056 
	C896.108032,849.855469 898.120789,848.313904 899.716248,846.418579 
	C903.911194,841.435181 908.588623,836.706299 911.883850,831.167908 
	C914.275024,827.148987 922.172791,820.807983 927.014404,821.535461 
	C930.328674,822.033508 932.613953,821.518066 934.362000,818.126770 
	C935.578857,815.765991 937.826965,813.535583 940.165527,812.247314 
	C943.743530,810.276245 943.302551,813.310669 943.168396,815.825684 
	C943.139771,816.167725 943.111572,816.602417 942.756958,816.940796 
	C941.633667,818.882690 940.865112,820.486206 940.096558,822.089661 
	C932.760925,835.459900 925.307922,848.767334 918.119202,862.216064 
	C909.059326,879.165100 900.225647,896.234924 891.257507,913.233154 
	C890.576416,914.524048 889.601440,915.659912 888.349243,916.686829 
	C886.296936,915.966614 884.226807,914.522949 883.101746,915.059814 
	C879.872009,916.601074 876.996582,918.903931 874.038025,920.987244 
	C872.312500,922.202209 870.642517,923.509277 869.040771,924.883667 
	C866.881104,926.736877 863.799500,928.315552 862.910706,930.685913 
	C860.981323,935.831360 856.502625,939.571594 852.642822,940.024292 
	C843.764282,941.065674 841.401428,949.490173 834.869324,953.247986 
	C826.090576,958.298035 819.455078,967.045654 811.775635,974.070740 
	C810.824097,974.941162 809.109680,975.359558 807.756104,975.344116 
	C800.969543,975.266418 795.260559,980.633057 795.426270,987.513733 
	C795.502502,990.680542 794.114624,991.593872 791.290405,991.712463 
	C787.667786,991.864502 783.951477,991.841248 780.470886,992.692200 
	C777.502930,993.417786 773.458313,993.422119 772.713623,998.183716 
	C770.314514,998.929199 767.778259,1000.505859 766.178162,999.838440 
	C762.971619,998.500854 765.138000,996.089417 766.188354,994.074768 
	C766.414551,993.640808 766.177124,992.485168 765.858704,992.348572 
	C765.223083,992.076050 763.924194,991.989746 763.706116,992.335449 
	C762.677795,993.966003 761.744568,995.707153 761.114990,997.525757 
	C760.348328,999.740540 759.919006,1002.072083 759.547302,1003.545959 
	C757.416565,1002.038147 755.946899,1000.279419 754.164307,999.864136 
	C747.334595,998.273071 743.166687,1001.692993 741.001282,1008.335876 
	C739.142761,1006.920654 737.659058,1005.790833 735.957214,1004.494873 
	C734.802795,1005.985779 734.076782,1007.343079 732.982483,1008.261597 
	C729.040039,1011.570557 725.355042,1015.505188 720.845764,1017.729736 
	C716.386475,1019.929504 711.059082,1020.396973 706.091248,1021.531189 
	C700.630188,1022.778076 695.144897,1023.918823 689.670166,1025.105835 
	C687.251282,1020.787720 684.784851,1016.495300 682.430725,1012.142212 
	C680.927246,1009.362061 679.590027,1006.492126 678.077393,1003.323120 
M719.756409,983.678833 
	C719.532837,983.792053 719.309204,983.905273 719.085632,984.018433 
	C719.168945,984.132568 719.252319,984.246765 719.335632,984.360901 
	C719.528137,984.203125 719.720642,984.045349 719.756409,983.678833 
z"/>
<path fill="#19D488" opacity="1.000000" stroke="none" 
	d="
M773.000000,997.999939 
	C773.458313,993.422119 777.502930,993.417786 780.470886,992.692200 
	C783.951477,991.841248 787.667786,991.864502 791.290405,991.712463 
	C794.114624,991.593872 795.502502,990.680542 795.426270,987.513733 
	C795.260559,980.633057 800.969543,975.266418 807.756104,975.344116 
	C809.109680,975.359558 810.824097,974.941162 811.775635,974.070740 
	C819.455078,967.045654 826.090576,958.298035 834.869324,953.247986 
	C841.401428,949.490173 843.764282,941.065674 852.642822,940.024292 
	C856.502625,939.571594 860.981323,935.831360 862.910706,930.685913 
	C863.799500,928.315552 866.881104,926.736877 869.040771,924.883667 
	C870.642517,923.509277 872.312500,922.202209 874.038025,920.987244 
	C876.996582,918.903931 879.872009,916.601074 883.101746,915.059814 
	C884.226807,914.522949 886.296936,915.966614 888.050049,916.854431 
	C882.393921,928.602234 876.695312,940.038635 870.827515,951.387573 
	C866.859680,959.061829 862.584167,966.576843 858.598633,974.242249 
	C857.466187,976.420227 856.868103,978.876038 855.994141,981.589111 
	C853.036987,986.341431 849.761475,990.517944 847.247131,995.111084 
	C838.310608,1011.435974 829.575989,1027.872437 820.877380,1044.325928 
	C814.745544,1055.924438 804.565674,1063.393555 794.352844,1070.873291 
	C793.290222,1071.651489 792.311218,1072.543945 791.130493,1073.669312 
	C782.551086,1075.817993 774.216797,1078.392822 765.698792,1079.375854 
	C753.095093,1080.830200 740.808655,1078.601685 729.461487,1072.633789 
	C719.810669,1067.558228 711.201721,1061.076416 704.321167,1052.302002 
	C704.614929,1052.005249 704.808655,1051.997803 705.341797,1051.912598 
	C709.659058,1049.570312 713.637024,1047.305664 717.834778,1044.915771 
	C717.347656,1044.025024 716.621155,1042.696289 715.430176,1040.518066 
	C717.867981,1040.653564 719.551880,1041.133789 720.998962,1040.741089 
	C723.419861,1040.083984 726.663025,1039.497070 727.793945,1037.742432 
	C729.478882,1035.128296 730.152649,1031.549316 730.305176,1028.335693 
	C730.522278,1023.761719 733.231018,1021.886536 736.878967,1020.625122 
	C742.460693,1018.694885 748.242554,1017.192139 751.160339,1011.154236 
	C751.570374,1010.305725 753.020569,1009.593994 754.063110,1009.477173 
	C760.334351,1008.774597 766.657959,1008.475525 772.894958,1007.567017 
	C774.905090,1007.274109 777.328735,1005.936218 778.344238,1004.313538 
	C778.863342,1003.484009 776.833313,1000.862122 775.663635,999.263977 
	C775.153137,998.566467 773.910278,998.404907 773.000000,997.999939 
z"/>
<path fill="#28DA7F" opacity="1.000000" stroke="none" 
	d="
M940.347534,821.875366 
	C940.865112,820.486206 941.633667,818.882690 942.731445,817.157104 
	C942.239929,818.577087 941.419189,820.119080 940.347534,821.875366 
z"/>
<path fill="#4DC482" opacity="1.000000" stroke="none" 
	d="
M976.299561,764.850464 
	C978.115417,760.244873 979.733154,755.157471 982.381470,750.679565 
	C990.442627,737.048828 998.853088,723.622986 1007.270630,710.207214 
	C1008.247620,708.650146 1010.123352,707.657104 1011.915344,706.391113 
	C1000.356445,725.802246 988.464661,745.224792 976.299561,764.850464 
z"/>
<path fill="#4DC482" opacity="1.000000" stroke="none" 
	d="
M605.890015,864.442261 
	C607.490906,865.793274 609.682617,867.230042 610.710754,869.257019 
	C618.145813,883.916565 625.345642,898.695435 632.903992,914.073242 
	C634.150024,917.456665 635.112061,920.203491 636.074097,922.950256 
	C636.074097,922.950256 635.798340,923.188110 635.659973,923.306702 
	C625.661804,903.883911 615.802002,884.342590 605.890015,864.442261 
z"/>
<path fill="#91FC4C" opacity="1.000000" stroke="none" 
	d="
M494.217224,635.883057 
	C487.329010,623.377014 480.505768,610.844055 474.237366,598.039429 
	C466.788391,582.823181 460.068298,567.248962 452.564301,552.061096 
	C445.579926,537.924866 437.908386,524.129639 430.686218,510.108612 
	C427.577271,504.072968 424.698212,497.908264 421.967682,491.691071 
	C418.600189,484.023529 424.874207,472.204071 433.437134,471.196228 
	C441.985596,470.190094 450.687500,470.202484 459.319397,470.250916 
	C476.608673,470.347961 493.922485,471.489288 511.176422,470.852295 
	C526.690125,470.279480 539.119995,475.299072 549.288696,486.663025 
	C550.055054,487.519562 551.099976,488.588226 551.120361,489.576721 
	C551.262390,496.472870 556.638428,500.170258 560.041016,505.154114 
	C564.425842,511.576752 568.402954,518.350952 571.860779,525.318542 
	C579.746338,541.208130 587.208496,557.307922 594.938965,573.660522 
	C593.380310,573.881836 591.701172,573.544189 590.078613,573.722412 
	C588.913086,573.850342 586.859070,574.650513 586.849731,575.179932 
	C586.762512,580.112061 582.684937,578.956543 580.039856,580.433228 
	C573.660217,583.994873 564.836853,583.627991 561.116089,591.756470 
	C560.710083,592.643433 558.737122,592.710144 557.654175,593.409851 
	C554.636963,595.359314 550.712585,596.831970 548.995544,599.628296 
	C546.918640,603.010620 544.328125,603.624084 541.109497,604.612488 
	C534.889587,606.522461 527.925781,607.733154 525.717041,615.492737 
	C525.550171,616.078857 525.031677,616.922546 524.558716,617.010193 
	C517.554810,618.308533 514.130981,624.289185 509.325989,628.463013 
	C508.612457,629.082825 507.536560,629.273315 506.651978,629.710388 
	C502.606018,631.709656 498.568451,633.725830 494.217224,635.883057 
z"/>
<path fill="#6EF25B" opacity="1.000000" stroke="none" 
	d="
M629.585083,642.025635 
	C640.192322,659.379944 645.476440,679.073730 655.610229,696.757690 
	C651.152039,698.886353 647.039917,700.426514 642.353394,698.566833 
	C641.085022,698.063599 639.108887,698.798645 637.652954,699.421814 
	C634.094849,700.944702 630.576355,702.600098 627.194824,704.477600 
	C625.677856,705.319885 624.527161,706.821777 623.135071,708.093018 
	C624.996948,709.687866 626.117737,710.647949 627.238525,711.608032 
	C619.037903,711.718323 613.229309,716.150269 606.986267,719.923523 
	C601.603638,723.176880 596.894775,727.983093 589.885071,728.229919 
	C588.582397,728.275818 587.363281,730.430603 586.088196,731.592957 
	C584.728088,732.833008 583.447571,734.195374 581.945496,735.234192 
	C580.624634,736.147644 578.146362,736.353455 577.737732,737.451660 
	C576.035950,742.026245 572.137451,742.075867 568.437134,742.827026 
	C567.002075,743.118286 565.337708,743.334656 564.270752,744.195862 
	C560.317932,747.386169 556.570740,750.831177 552.746277,754.180542 
	C551.091553,749.364624 549.451172,744.543640 547.772156,739.736206 
	C547.341492,738.503235 546.927856,737.231140 546.271057,736.115601 
	C539.902954,725.299133 533.484802,714.512268 526.957031,703.377869 
	C534.419678,697.699280 542.544617,693.447205 551.454224,690.748352 
	C552.544312,690.418152 553.889526,690.061707 554.531128,689.252930 
	C561.156555,680.901367 570.852295,677.233521 579.808044,672.426147 
	C581.117432,671.723389 582.253601,670.681946 583.588318,670.045593 
	C586.882263,668.475159 590.244995,667.049133 593.580017,665.565063 
	C593.998596,666.015076 594.417114,666.465088 594.835693,666.915100 
	C594.983826,665.691650 595.313477,664.457825 595.244812,663.246643 
	C595.066467,660.103271 596.006409,658.843262 599.344543,660.014526 
	C600.343384,660.364990 602.495850,660.006714 602.793152,659.361694 
	C604.812012,654.981506 608.291077,652.681763 612.527771,650.688232 
	C616.588135,648.777710 620.082520,645.697449 623.991577,643.415710 
	C625.486755,642.542969 627.442261,642.458740 629.585083,642.025635 
z"/>
<path fill="#36DE79" opacity="1.000000" stroke="none" 
	d="
M636.322021,923.171509 
	C635.112061,920.203491 634.150024,917.456665 633.099915,914.361450 
	C635.390076,911.035400 637.733826,908.029053 640.170410,905.100037 
	C640.794861,904.349365 641.747803,903.268372 642.490112,903.313843 
	C649.007935,903.713623 653.277710,898.599243 658.877197,896.756958 
	C661.231934,895.982178 663.303040,894.148254 665.304382,892.547485 
	C667.647034,890.673828 669.746155,888.498901 672.000732,886.511169 
	C674.020935,884.730103 676.034973,882.925476 678.198547,881.330505 
	C679.255676,880.551270 680.656006,879.755859 681.885010,879.780090 
	C685.955078,879.860168 689.017761,878.893860 690.367065,874.512939 
	C690.744141,873.288696 692.137390,871.744019 693.307129,871.497437 
	C702.704468,869.516113 709.946106,863.903564 717.588318,858.550537 
	C721.971680,855.480164 728.017517,854.783203 733.714722,852.992432 
	C737.680847,856.663025 740.966431,860.690796 744.867554,863.990906 
	C755.608459,873.077454 767.763550,877.910217 782.552734,874.975220 
	C783.650391,879.398560 783.429077,883.514465 779.818359,886.900085 
	C779.049866,887.620728 778.615601,889.486816 778.974121,890.485107 
	C780.597534,895.005737 777.924988,896.269897 774.433289,896.746948 
	C766.853455,897.782471 762.367188,903.697266 757.105286,908.059998 
	C750.839905,913.254700 745.363770,919.146912 736.426514,919.568481 
	C734.672729,919.651245 732.771790,921.527161 731.359253,922.983887 
	C727.522095,926.940857 723.910522,931.116455 719.599731,935.879089 
	C714.336243,934.922913 709.315247,936.275635 705.399475,942.718628 
	C704.024109,944.981567 698.290955,944.545593 694.575562,945.455994 
	C692.395020,945.990356 689.473083,946.080750 688.260559,947.525513 
	C683.602539,953.075806 677.426575,956.004089 671.247070,959.265259 
	C667.475342,961.255676 664.430847,964.624084 660.987122,967.733215 
	C656.356934,959.487183 651.864563,950.846130 647.220276,942.287537 
	C643.772339,935.933838 640.127197,929.687073 636.322021,923.171509 
z"/>
<path fill="#4FE869" opacity="1.000000" stroke="none" 
	d="
M680.002441,746.002441 
	C683.232117,751.555237 686.721436,756.975586 689.635803,762.689148 
	C695.143677,773.487122 700.321045,784.453674 705.772705,795.670410 
	C702.781738,796.343323 699.359619,796.008789 696.588867,797.195312 
	C691.217896,799.495300 686.017212,802.346191 681.096497,805.513367 
	C669.783691,812.794800 658.680786,820.402466 647.492798,827.878052 
	C638.276855,834.035950 629.035828,840.156677 619.855896,846.367798 
	C614.962280,849.678894 610.174561,853.146484 605.145630,856.836914 
	C597.676575,842.951599 590.365845,828.790466 583.152954,814.579651 
	C581.581604,811.483887 580.360168,808.210510 579.042847,804.270020 
	C581.454285,795.860413 582.264160,795.656860 589.924561,795.697144 
	C595.118103,795.724426 600.627869,795.292358 603.419006,789.391418 
	C603.891418,788.392700 605.394409,787.313843 606.470398,787.260437 
	C613.418518,786.915588 616.537048,781.796326 620.127869,777.031555 
	C621.184753,775.629089 623.055054,774.401733 624.760803,774.016479 
	C628.397827,773.195190 631.070862,771.708069 632.980835,768.269714 
	C633.848267,766.708191 636.386719,766.120239 638.080750,764.963867 
	C643.255615,761.431580 652.010193,764.263184 654.429321,755.767822 
	C654.573547,755.261414 655.408508,754.899048 655.981689,754.575623 
	C663.494141,750.337036 671.529297,747.554016 680.002441,746.002441 
z"/>
<path fill="#48E46F" opacity="1.000000" stroke="none" 
	d="
M1096.523071,462.958740 
	C1098.936279,464.731201 1099.968994,465.848419 1097.311279,468.802765 
	C1094.154785,472.311310 1091.654785,476.979645 1090.462280,481.559906 
	C1088.369995,489.595215 1083.260986,495.109283 1077.090820,499.662445 
	C1073.564087,502.264832 1071.177246,504.840027 1071.026123,509.627716 
	C1056.352905,522.029419 1041.662476,533.997620 1027.045532,546.054810 
	C1002.684631,566.149414 978.413940,586.353516 954.014221,606.400635 
	C945.158630,613.676392 935.258728,619.861389 927.267944,627.958008 
	C919.484497,635.844666 912.290833,637.209412 903.184692,631.474426 
	C901.542297,630.440125 899.459412,630.105347 897.273315,628.839600 
	C896.305603,623.898438 895.644409,619.565430 894.858643,614.416382 
	C889.097107,616.683777 883.481201,618.893921 877.865295,621.104004 
	C874.507141,620.122131 871.149048,619.140259 867.472778,617.695312 
	C868.464539,612.844482 871.359070,612.889587 875.016357,614.153320 
	C879.389465,615.664490 887.132751,612.580444 889.024963,609.314331 
	C890.531494,606.713989 892.985962,604.666321 894.518372,602.076660 
	C897.348816,597.293457 901.703735,594.702454 906.492676,592.401123 
	C907.614502,591.862000 907.978821,589.917847 908.953247,588.861389 
	C910.516174,587.167053 912.247070,585.615601 913.997498,584.108948 
	C916.996155,581.527832 920.037354,578.994019 923.118835,576.512512 
	C924.174927,575.661987 925.343811,574.534424 926.566711,574.382385 
	C931.164734,573.810364 935.819458,573.696350 940.419922,573.138733 
	C941.272339,573.035400 942.561523,571.731506 942.646912,570.881104 
	C943.216675,565.207153 946.752319,561.768860 950.914429,558.463745 
	C952.431091,557.259338 952.993225,554.853088 954.294312,552.898682 
	C955.693298,550.956787 956.788757,549.111267 958.205505,546.724548 
	C959.184998,546.974487 960.900024,547.584839 962.664490,547.812500 
	C964.352539,548.030212 966.091980,547.850098 967.808838,547.844849 
	C967.420410,546.246887 967.070862,544.638000 966.628357,543.055115 
	C966.377747,542.158752 965.974365,541.305115 965.362610,539.708801 
	C974.450378,539.848022 977.668030,533.364624 981.330688,526.866333 
	C987.005859,524.330872 993.234619,522.943726 997.430237,519.248169 
	C1001.852844,515.352722 1005.361633,509.711395 1005.065063,502.957550 
	C1019.238831,496.562531 1033.395508,490.129211 1047.591431,483.783905 
	C1060.130493,478.179169 1072.713501,472.672546 1085.930176,467.197144 
	C1089.792236,468.569580 1091.218750,466.882263 1091.966553,464.057861 
	C1093.367432,463.708679 1094.768311,463.359558 1096.523071,462.958740 
z"/>
<path fill="#36DE79" opacity="1.000000" stroke="none" 
	d="
M1112.015137,587.554077 
	C1110.826172,586.850769 1109.732422,585.593445 1108.456543,584.561279 
	C1106.232666,582.762085 1103.892334,581.798462 1101.293945,584.062866 
	C1097.436035,587.424866 1093.532715,590.735474 1089.615845,594.028870 
	C1088.487305,594.977844 1087.328857,595.946289 1086.041870,596.642944 
	C1079.786621,600.028931 1072.804321,602.489563 1067.385498,606.887268 
	C1061.860352,611.371399 1058.464111,617.797791 1050.864014,620.666443 
	C1044.421265,623.098267 1039.165161,628.735291 1033.471436,633.068970 
	C1029.615356,636.003906 1026.149902,639.517212 1022.076721,642.085083 
	C1017.192444,645.164307 1011.853333,647.524353 1006.691406,650.157043 
	C1006.280029,650.366821 1005.707947,650.355774 1005.222839,650.311829 
	C1000.706726,649.902405 996.193359,649.463379 991.308960,648.973633 
	C995.459412,641.581238 999.804626,634.132324 1004.545532,626.944458 
	C1010.476562,617.952148 1016.901855,609.285217 1022.808655,600.277771 
	C1031.430298,587.130493 1039.701904,573.754211 1048.266113,560.568665 
	C1058.530029,544.766113 1068.944458,529.061401 1079.561279,513.139465 
	C1084.779175,512.714355 1085.872437,513.910950 1083.783936,518.120728 
	C1082.124390,521.466125 1079.608765,524.376770 1077.689941,527.609070 
	C1077.022583,528.733154 1077.004517,530.242737 1076.689941,531.576233 
	C1077.894531,531.829224 1079.450928,532.685669 1080.240112,532.225830 
	C1082.991211,530.622925 1086.311401,529.096558 1087.913940,526.583740 
	C1093.721191,517.477844 1097.205933,516.060547 1107.530396,519.675537 
	C1109.678223,520.427551 1112.064697,520.497559 1114.676636,520.956665 
	C1114.017578,543.054810 1113.022949,565.078064 1112.015137,587.554077 
z"/>
<path fill="#54E769" opacity="1.000000" stroke="none" 
	d="
M953.990845,552.995117 
	C952.993225,554.853088 952.431091,557.259338 950.914429,558.463745 
	C946.752319,561.768860 943.216675,565.207153 942.646912,570.881104 
	C942.561523,571.731506 941.272339,573.035400 940.419922,573.138733 
	C935.819458,573.696350 931.164734,573.810364 926.566711,574.382385 
	C925.343811,574.534424 924.174927,575.661987 923.118835,576.512512 
	C920.037354,578.994019 916.996155,581.527832 913.997498,584.108948 
	C912.247070,585.615601 910.516174,587.167053 908.953247,588.861389 
	C907.978821,589.917847 907.614502,591.862000 906.492676,592.401123 
	C901.703735,594.702454 897.348816,597.293457 894.518372,602.076660 
	C892.985962,604.666321 890.531494,606.713989 889.024963,609.314331 
	C887.132751,612.580444 879.389465,615.664490 875.016357,614.153320 
	C871.359070,612.889587 868.464539,612.844482 867.115234,617.583435 
	C853.837036,612.560181 840.627869,607.111389 827.344421,601.850098 
	C822.406860,599.894531 819.159058,596.898499 818.903381,591.312378 
	C818.650391,585.786621 821.803955,582.799683 826.464539,580.774841 
	C850.249756,570.440674 874.043640,560.125671 897.778870,549.677551 
	C905.371521,546.335327 912.774414,542.564026 920.304688,539.076782 
	C922.859741,537.893494 925.539673,536.979797 928.780151,536.167664 
	C935.177368,538.672791 939.900940,543.534729 946.989746,542.695190 
	C950.461914,542.284058 952.775635,544.410522 952.636169,548.506470 
	C952.585815,549.985596 953.510864,551.497925 953.990845,552.995117 
z"/>
<path fill="#1CD786" opacity="1.000000" stroke="none" 
	d="
M1020.226257,709.223145 
	C1021.837830,707.542725 1023.726440,706.054993 1026.238647,704.289795 
	C1033.514404,703.162598 1037.997925,707.241272 1042.769409,711.648132 
	C1041.920410,706.174988 1044.822754,705.367859 1048.713501,704.822815 
	C1057.189087,703.635376 1060.861938,698.606079 1060.247925,690.128845 
	C1060.122803,688.398804 1060.769531,686.612976 1061.234375,683.800842 
	C1062.708252,685.354065 1063.481934,685.819214 1063.718628,686.477478 
	C1064.938354,689.869995 1066.687622,689.480530 1069.465332,688.005981 
	C1074.373047,685.400757 1079.441528,682.957092 1084.693970,681.194092 
	C1087.954590,680.099670 1088.987549,678.485718 1089.564331,675.305664 
	C1090.053955,672.606628 1091.209839,668.977417 1093.242798,667.822632 
	C1097.844727,665.208374 1103.169922,663.867126 1108.200928,662.008179 
	C1107.833008,681.968262 1107.618774,701.932800 1107.042236,721.886841 
	C1106.667847,734.844116 1105.894165,747.794434 1105.056885,760.732178 
	C1104.437012,770.313171 1095.680786,774.832458 1087.457031,769.896729 
	C1084.073364,767.866028 1080.968140,765.371338 1077.392334,763.016663 
	C1071.371338,756.944336 1065.944458,750.679626 1059.963501,744.998230 
	C1048.560059,734.166077 1036.853638,723.652466 1025.235962,713.047180 
	C1023.772827,711.711548 1022.086304,710.620422 1020.226257,709.223145 
z"/>
<path fill="#21D784" opacity="1.000000" stroke="none" 
	d="
M1108.357422,661.632874 
	C1103.169922,663.867126 1097.844727,665.208374 1093.242798,667.822632 
	C1091.209839,668.977417 1090.053955,672.606628 1089.564331,675.305664 
	C1088.987549,678.485718 1087.954590,680.099670 1084.693970,681.194092 
	C1079.441528,682.957092 1074.373047,685.400757 1069.465332,688.005981 
	C1066.687622,689.480530 1064.938354,689.869995 1063.718628,686.477478 
	C1063.481934,685.819214 1062.708252,685.354065 1061.234375,683.800842 
	C1060.769531,686.612976 1060.122803,688.398804 1060.247925,690.128845 
	C1060.861938,698.606079 1057.189087,703.635376 1048.713501,704.822815 
	C1044.822754,705.367859 1041.920410,706.174988 1042.769409,711.648132 
	C1037.997925,707.241272 1033.514404,703.162598 1026.437988,704.009888 
	C1028.024780,701.508057 1029.688477,698.579407 1032.125732,696.606384 
	C1036.141235,693.355774 1040.610718,690.650635 1044.984375,687.865601 
	C1046.768066,686.729858 1048.730713,685.771790 1050.736816,685.113281 
	C1053.795776,684.109497 1056.641846,683.184265 1055.030273,678.903015 
	C1056.942505,678.903015 1058.424805,679.007996 1059.886719,678.880798 
	C1062.765259,678.630493 1064.492432,677.427673 1062.691406,674.354370 
	C1060.913696,671.320618 1062.136108,670.350037 1064.988892,668.865967 
	C1069.260864,666.643677 1073.051270,663.463013 1076.943970,660.552612 
	C1082.219360,656.608459 1087.417603,652.559875 1092.611816,648.508484 
	C1097.316406,644.839050 1101.971191,641.105713 1106.916870,637.187500 
	C1107.579956,638.611023 1108.503296,640.593201 1109.710571,642.776367 
	C1109.990234,643.432678 1109.985962,643.888123 1109.770020,644.780640 
	C1109.419067,645.835205 1109.279785,646.452576 1109.140503,647.070007 
	C1108.931641,651.799194 1108.722778,656.528381 1108.357422,661.632874 
z"/>
<path fill="#4FE869" opacity="1.000000" stroke="none" 
	d="
M954.294312,552.898682 
	C953.510864,551.497925 952.585815,549.985596 952.636169,548.506470 
	C952.775635,544.410522 950.461914,542.284058 946.989746,542.695190 
	C939.900940,543.534729 935.177368,538.672791 929.150940,536.118652 
	C932.447998,534.199646 935.956055,532.470947 939.543274,530.926086 
	C947.389709,527.546814 955.276428,524.260803 963.791382,521.158813 
	C968.443115,527.705566 973.984009,529.511169 980.990234,526.999512 
	C977.668030,533.364624 974.450378,539.848022 965.362610,539.708801 
	C965.974365,541.305115 966.377747,542.158752 966.628357,543.055115 
	C967.070862,544.638000 967.420410,546.246887 967.808838,547.844849 
	C966.091980,547.850098 964.352539,548.030212 962.664490,547.812500 
	C960.900024,547.584839 959.184998,546.974487 958.205505,546.724548 
	C956.788757,549.111267 955.693298,550.956787 954.294312,552.898682 
M962.029175,533.730347 
	C961.812988,533.109497 961.596741,532.488586 961.380554,531.867676 
	C960.836975,532.374756 960.293457,532.881897 959.749878,533.388977 
	C960.386292,533.617126 961.022644,533.845276 962.029175,533.730347 
z"/>
<path fill="#54E769" opacity="1.000000" stroke="none" 
	d="
M981.330688,526.866333 
	C973.984009,529.511169 968.443115,527.705566 964.177673,521.141052 
	C966.742249,519.572754 969.536438,518.178650 972.393250,516.927612 
	C983.022095,512.273499 993.671509,507.666321 1004.689087,502.999512 
	C1005.361633,509.711395 1001.852844,515.352722 997.430237,519.248169 
	C993.234619,522.943726 987.005859,524.330872 981.330688,526.866333 
z"/>
<path fill="#54E769" opacity="1.000000" stroke="none" 
	d="
M878.153931,621.315552 
	C883.481201,618.893921 889.097107,616.683777 894.858643,614.416382 
	C895.644409,619.565430 896.305603,623.898438 896.970398,628.645752 
	C890.796875,626.549072 884.619690,624.038025 878.153931,621.315552 
z"/>
<path fill="#41E370" opacity="1.000000" stroke="none" 
	d="
M1091.636353,464.131226 
	C1091.218750,466.882263 1089.792236,468.569580 1086.280762,467.107788 
	C1087.754028,466.030792 1089.530151,465.117676 1091.636353,464.131226 
z"/>
<path fill="#28DA7F" opacity="1.000000" stroke="none" 
	d="
M1109.279175,646.829712 
	C1109.279785,646.452576 1109.419067,645.835205 1109.754639,645.121643 
	C1109.773315,645.546753 1109.595703,646.068054 1109.279175,646.829712 
z"/>
<path fill="#5EED62" opacity="1.000000" stroke="none" 
	d="
M679.954224,745.632324 
	C671.529297,747.554016 663.494141,750.337036 655.981689,754.575623 
	C655.408508,754.899048 654.573547,755.261414 654.429321,755.767822 
	C652.010193,764.263184 643.255615,761.431580 638.080750,764.963867 
	C636.386719,766.120239 633.848267,766.708191 632.980835,768.269714 
	C631.070862,771.708069 628.397827,773.195190 624.760803,774.016479 
	C623.055054,774.401733 621.184753,775.629089 620.127869,777.031555 
	C616.537048,781.796326 613.418518,786.915588 606.470398,787.260437 
	C605.394409,787.313843 603.891418,788.392700 603.419006,789.391418 
	C600.627869,795.292358 595.118103,795.724426 589.924561,795.697144 
	C582.264160,795.656860 581.454285,795.860413 579.014038,803.913940 
	C576.935913,801.295410 574.710388,798.413513 573.011658,795.248840 
	C567.390076,784.776123 561.958435,774.201477 556.279053,763.400757 
	C555.067444,760.372803 554.030762,757.609985 552.870178,754.513794 
	C556.570740,750.831177 560.317932,747.386169 564.270752,744.195862 
	C565.337708,743.334656 567.002075,743.118286 568.437134,742.827026 
	C572.137451,742.075867 576.035950,742.026245 577.737732,737.451660 
	C578.146362,736.353455 580.624634,736.147644 581.945496,735.234192 
	C583.447571,734.195374 584.728088,732.833008 586.088196,731.592957 
	C587.363281,730.430603 588.582397,728.275818 589.885071,728.229919 
	C596.894775,727.983093 601.603638,723.176880 606.986267,719.923523 
	C613.229309,716.150269 619.037903,711.718323 627.238525,711.608032 
	C626.117737,710.647949 624.996948,709.687866 623.135071,708.093018 
	C624.527161,706.821777 625.677856,705.319885 627.194824,704.477600 
	C630.576355,702.600098 634.094849,700.944702 637.652954,699.421814 
	C639.108887,698.798645 641.085022,698.063599 642.353394,698.566833 
	C647.039917,700.426514 651.152039,698.886353 655.704834,697.102783 
	C657.703186,699.815125 659.338867,702.613770 660.972046,705.413757 
	C663.754578,710.184204 666.535583,714.955505 669.600708,719.903442 
	C672.346191,726.344727 674.799255,732.612549 677.275208,738.871338 
	C678.122559,741.013367 679.027466,743.132507 679.954224,745.632324 
z"/>
<path fill="#36DE79" opacity="1.000000" stroke="none" 
	d="
M990.615112,649.099243 
	C991.125977,649.571594 991.297119,650.214600 991.566406,650.813477 
	C994.947083,658.333557 994.106018,660.353577 986.083252,662.843811 
	C983.640625,663.601990 982.150757,664.357300 983.248291,667.267395 
	C983.546936,668.059448 983.429749,669.671936 982.919434,670.000305 
	C978.880615,672.599609 977.362366,678.442078 971.246704,678.873047 
	C973.585388,673.585144 976.303223,668.232300 979.102478,662.523315 
	C981.778015,659.259583 984.394287,656.371216 986.956482,653.435669 
	C988.132690,652.087952 989.202820,650.647644 990.615112,649.099243 
z"/>
<path fill="#1CD786" opacity="1.000000" stroke="none" 
	d="
M772.713623,998.183716 
	C773.910278,998.404907 775.153137,998.566467 775.663635,999.263977 
	C776.833313,1000.862122 778.863342,1003.484009 778.344238,1004.313538 
	C777.328735,1005.936218 774.905090,1007.274109 772.894958,1007.567017 
	C766.657959,1008.475525 760.334351,1008.774597 754.063110,1009.477173 
	C753.020569,1009.593994 751.570374,1010.305725 751.160339,1011.154236 
	C748.242554,1017.192139 742.460693,1018.694885 736.878967,1020.625122 
	C733.231018,1021.886536 730.522278,1023.761719 730.305176,1028.335693 
	C730.152649,1031.549316 729.478882,1035.128296 727.793945,1037.742432 
	C726.663025,1039.497070 723.419861,1040.083984 720.998962,1040.741089 
	C719.551880,1041.133789 717.867981,1040.653564 715.430176,1040.518066 
	C716.621155,1042.696289 717.347656,1044.025024 717.834778,1044.915771 
	C713.637024,1047.305664 709.659058,1049.570312 705.304626,1051.557373 
	C705.029236,1049.489746 705.154907,1047.700562 705.226868,1045.909180 
	C705.420044,1041.099243 704.989380,1036.252197 699.860596,1034.243408 
	C695.470947,1032.524170 692.728699,1029.298950 689.892456,1025.961792 
	C689.892456,1025.961792 689.777710,1025.535034 689.723938,1025.320435 
	C695.144897,1023.918823 700.630188,1022.778076 706.091248,1021.531189 
	C711.059082,1020.396973 716.386475,1019.929504 720.845764,1017.729736 
	C725.355042,1015.505188 729.040039,1011.570557 732.982483,1008.261597 
	C734.076782,1007.343079 734.802795,1005.985779 735.957214,1004.494873 
	C737.659058,1005.790833 739.142761,1006.920654 741.001282,1008.335876 
	C743.166687,1001.692993 747.334595,998.273071 754.164307,999.864136 
	C755.946899,1000.279419 757.416565,1002.038147 759.547302,1003.545959 
	C759.919006,1002.072083 760.348328,999.740540 761.114990,997.525757 
	C761.744568,995.707153 762.677795,993.966003 763.706116,992.335449 
	C763.924194,991.989746 765.223083,992.076050 765.858704,992.348572 
	C766.177124,992.485168 766.414551,993.640808 766.188354,994.074768 
	C765.138000,996.089417 762.971619,998.500854 766.178162,999.838440 
	C767.778259,1000.505859 770.314514,998.929199 772.713623,998.183716 
z"/>
<path fill="#21D784" opacity="1.000000" stroke="none" 
	d="
M689.932495,1026.356201 
	C692.728699,1029.298950 695.470947,1032.524170 699.860596,1034.243408 
	C704.989380,1036.252197 705.420044,1041.099243 705.226868,1045.909180 
	C705.154907,1047.700562 705.029236,1049.489746 704.965271,1051.635010 
	C704.808655,1051.997803 704.614929,1052.005249 704.128906,1052.023926 
	C703.112366,1051.721069 702.388062,1051.406860 701.381714,1051.000732 
	C699.614807,1048.364624 698.130005,1045.820557 696.359375,1043.109863 
	C695.269287,1041.059326 694.464966,1039.175537 693.371704,1037.113770 
	C692.592896,1035.731689 692.103088,1034.527710 691.342712,1033.135376 
	C690.705627,1030.881714 690.339050,1028.816162 689.932495,1026.356201 
z"/>
<path fill="#36DE79" opacity="1.000000" stroke="none" 
	d="
M1055.079956,623.378906 
	C1055.920044,624.496155 1056.448120,625.601501 1056.976074,626.706787 
	C1055.809937,626.664307 1054.643921,626.621887 1053.477783,626.579407 
	C1053.907837,625.508545 1054.337769,624.437744 1055.079956,623.378906 
z"/>
<path fill="#28DA7F" opacity="1.000000" stroke="none" 
	d="
M719.834778,983.783203 
	C719.720642,984.045349 719.528137,984.203125 719.335632,984.360901 
	C719.252319,984.246765 719.168945,984.132568 719.085632,984.018433 
	C719.309204,983.905273 719.532837,983.792053 719.834778,983.783203 
z"/>
<path fill="#54E769" opacity="1.000000" stroke="none" 
	d="
M961.844116,533.901855 
	C961.022644,533.845276 960.386292,533.617126 959.749878,533.388977 
	C960.293457,532.881897 960.836975,532.374756 961.380493,531.867676 
	C961.596741,532.488586 961.812988,533.109497 961.844116,533.901855 
z"/>
</svg>